M48
;DRILL file {KiCad (5.0.0)} date 12/01/18 14:38:27
;FORMAT={3:3/ absolute / metric / suppress leading zeros}
FMAT,2
METRIC,TZ
T1C0.699
T2C0.700
T3C0.800
T4C0.900
T5C1.000
T6C1.524
T7C2.000
T8C4.000
%
G90
G05
M71
T1
X150114Y-72430
X150114Y-77430
T2
X105918Y-100584
X110236Y-58674
X118936Y-81661
X132271Y-81661
X138811Y-71628
X139446Y-89091
X140335Y-66802
X140716Y-85154
X142304Y-94806
X142875Y-86995
X145923Y-83693
X147193Y-67056
X147320Y-88011
X148590Y-85217
X149733Y-62103
X157099Y-65532
X167640Y-70104
X169291Y-93091
X169291Y-95758
X169291Y-98679
X171450Y-85725
X179324Y-98425
X185166Y-94869
X187325Y-90932
X114681Y-76200
X122301Y-76200
X189992Y-87122
X189992Y-94742
X94107Y-57023
X101727Y-57023
X114681Y-78740
X122301Y-78740
X114681Y-73660
X122301Y-73660
X83185Y-57023
X90805Y-57023
X153987Y-91821
X153987Y-99441
X114681Y-66421
X122301Y-66421
X114681Y-68707
X122301Y-68707
X145288Y-91821
X145288Y-99441
X163449Y-59944
X171069Y-59944
X94107Y-59563
X101727Y-59563
X151448Y-91821
X151448Y-99441
X114681Y-61468
X122301Y-61468
X147828Y-91821
X147828Y-99441
X188849Y-56007
X188849Y-63627
X192151Y-56007
X192151Y-63627
X143256Y-63754
X143256Y-71374
X146177Y-63754
X153797Y-63754
X114681Y-64008
X122301Y-64008
X138303Y-58293
X145923Y-58293
X83185Y-59563
X90805Y-59563
X114681Y-71120
X122301Y-71120
X136271Y-54483
X143891Y-54483
X174498Y-57404
X174498Y-59944
X174498Y-62484
X174498Y-65024
X174498Y-67564
X174498Y-70104
X174498Y-72644
X174498Y-75184
X174498Y-77724
X174498Y-80264
X174498Y-82804
X174498Y-85344
X174498Y-87884
X174498Y-90424
X182118Y-57404
X182118Y-59944
X182118Y-62484
X182118Y-65024
X182118Y-67564
X182118Y-70104
X182118Y-72644
X182118Y-75184
X182118Y-77724
X182118Y-80264
X182118Y-82804
X182118Y-85344
X182118Y-87884
X182118Y-90424
T3
X153670Y-77343
X153670Y-79843
X114721Y-58674
X117221Y-58674
X124841Y-66294
X124841Y-68794
X153670Y-67564
X153670Y-70064
X153670Y-72390
X153670Y-74890
X124841Y-71120
X124841Y-73620
X124968Y-76240
X124968Y-78740
X170180Y-67604
X170180Y-70104
X131445Y-66588
X131445Y-69088
X122301Y-81661
X124801Y-81661
T4
X189611Y-75819
X192151Y-75819
X189611Y-69088
X192151Y-69088
X189611Y-82550
X192151Y-82550
T5
X76657Y-56972
X76657Y-59512
X163449Y-65024
X163449Y-67564
X163449Y-70104
X163449Y-72644
X163449Y-75184
X163449Y-77724
X163449Y-80264
X126492Y-100584
X129032Y-100584
X131572Y-100584
X134112Y-100584
X136652Y-100584
X139192Y-100584
X157353Y-88519
X157353Y-91059
X157353Y-93599
X157353Y-96139
X157353Y-98679
T6
X78804Y-65659
X78804Y-96647
X85534Y-65659
X85534Y-96647
X92266Y-65659
X92266Y-96647
X98997Y-65659
X98997Y-96647
T7
X110807Y-85672
X120968Y-95812
X131128Y-85672
T8
X68453Y-97790
X129667Y-59055
X193675Y-99187
T0
M30
